<svg xmlns="http://www.w3.org/2000/svg" viewBox="0 0 38.92 38.92"><g id="Ebene_2" data-name="Ebene 2"><g id="Ebene_1-2" data-name="Ebene 1"><path d="M26,7.21H13.59a6.14,6.14,0,0,0-6.14,6.14V25.74a6.14,6.14,0,0,0,6.14,6.14H26a6.14,6.14,0,0,0,6.14-6.14V13.35A6.14,6.14,0,0,0,26,7.21ZM19.46,27.3a7.85,7.85,0,1,1,7.84-7.84A7.85,7.85,0,0,1,19.46,27.3Zm7.92-13.86a1.84,1.84,0,1,1,1.84-1.84A1.84,1.84,0,0,1,27.38,13.44Z"/><circle cx="19.42" cy="19.42" r="5.07" transform="translate(-2.86 3.36) rotate(-9.22)"/><path d="M0,0V38.92H38.92V0ZM34.3,25.81a8.25,8.25,0,0,1-8.25,8.25H13.52a8.25,8.25,0,0,1-8.26-8.25V13.28A8.25,8.25,0,0,1,13.52,5H26.05a8.25,8.25,0,0,1,8.25,8.25Z"/></g></g></svg>