<?xml version="1.0" encoding="UTF-8"?>
<svg id="Layer_2" data-name="Layer 2" xmlns="http://www.w3.org/2000/svg" viewBox="0 0 788.46 204.4">
  <defs>
    <style>
      .cls-1 {
        fill: #003b4e;
      }
    </style>
  </defs>
  <g id="Calque_1" data-name="Calque 1">
    <g>
      <g>
        <polygon class="cls-1" points="638.32 55.68 574.03 55.68 552.84 92.38 499.51 0 422.67 133.09 345.83 0 268.99 133.09 192.15 0 157.02 60.84 138.81 92.38 85.48 0 0 148.06 64.29 148.06 85.48 111.36 106.67 148.06 106.67 148.06 138.81 203.74 170.96 148.06 170.96 148.06 192.15 111.36 213.33 148.06 260.35 148.06 277.63 148.06 324.64 148.06 345.83 111.36 367.01 148.06 414.03 148.06 431.31 148.06 478.32 148.06 499.51 111.36 512.66 134.14 552.84 203.74 593.02 134.14 606.18 111.36 638.32 55.68"/>
        <polygon class="cls-1" points="702.98 0 617.5 148.06 681.79 148.06 702.98 111.36 724.17 148.06 788.46 148.06 702.98 0"/>
      </g>
      <g>
        <path class="cls-1" d="m300.36,203.7c-2.09-.46-3.92-1.13-5.49-1.99-1.56-.87-2.84-1.91-3.84-3.13-1-1.22-1.67-2.61-2.01-4.16h8.46c.25.8.67,1.5,1.26,2.08.6.59,1.34,1.07,2.22,1.46.88.39,1.89.68,3.03.87,1.14.2,2.35.3,3.64.3.84,0,1.66-.03,2.45-.1.79-.07,1.52-.16,2.19-.28s1.29-.27,1.85-.46c.56-.19,1.03-.42,1.43-.69.39-.27.7-.58.91-.93.21-.35.32-.73.32-1.15v-.04c0-.63-.16-1.15-.48-1.57-.32-.42-.83-.78-1.51-1.07-.69-.29-1.56-.53-2.62-.72-1.06-.19-2.31-.35-3.75-.47l-5.24-.57c-2.22-.2-4.16-.53-5.84-.99-1.68-.45-3.08-1.05-4.2-1.79-1.12-.73-1.97-1.62-2.53-2.65-.56-1.03-.84-2.22-.84-3.57v-.04c0-.95.2-1.84.59-2.66.4-.82.96-1.56,1.68-2.21s1.59-1.23,2.6-1.74,2.13-.94,3.36-1.28c1.23-.34,2.56-.6,3.98-.77,1.42-.18,2.91-.27,4.45-.27,2.31,0,4.44.21,6.38.62,1.94.41,3.66,1.02,5.15,1.8,1.49.79,2.71,1.76,3.67,2.92.96,1.16,1.62,2.47,1.97,3.95h-8.44c-.27-.68-.69-1.27-1.25-1.76-.56-.49-1.25-.91-2.06-1.23-.81-.33-1.71-.58-2.71-.75-1-.17-2.08-.26-3.25-.26-.72,0-1.43.03-2.12.08-.69.05-1.34.14-1.96.26-.61.12-1.18.27-1.69.44-.52.17-.96.38-1.34.62-.37.24-.67.52-.88.84-.21.32-.32.68-.32,1.09v.02c0,.49.13.92.38,1.29s.68.7,1.28.99c.6.29,1.38.52,2.35.7.97.18,2.18.34,3.62.48l5.26.57c2.33.22,4.37.53,6.14.94,1.77.4,3.25.96,4.44,1.66,1.19.7,2.09,1.56,2.69,2.59.6,1.03.91,2.29.91,3.78v.06c0,1.07-.19,2.05-.56,2.94-.37.89-.91,1.68-1.61,2.39-.7.71-1.56,1.33-2.57,1.87-1.01.54-2.17.98-3.47,1.33-1.3.35-2.71.61-4.23.79-1.52.18-3.16.27-4.91.27-2.52,0-4.82-.23-6.91-.69Z"/>
        <path class="cls-1" d="m339.43,179.52h-13.83v-5.75h35.34v5.75h-13.81v24.22h-7.71v-24.22Z"/>
        <path class="cls-1" d="m374.38,203.6c-2.12-.53-3.89-1.35-5.31-2.47-1.42-1.11-2.49-2.53-3.2-4.25-.71-1.72-1.07-3.76-1.07-6.13v-16.99h7.69v16.89c0,1.33.19,2.5.58,3.51.39,1.01.96,1.85,1.73,2.52.77.67,1.73,1.18,2.89,1.53,1.16.35,2.51.52,4.05.52s2.9-.17,4.06-.52c1.15-.35,2.12-.86,2.88-1.53s1.35-1.51,1.73-2.52c.39-1.01.58-2.18.58-3.51v-16.89h7.69v16.99c0,2.37-.36,4.41-1.07,6.13-.71,1.72-1.78,3.14-3.2,4.25-1.42,1.12-3.19,1.94-5.3,2.47-2.11.53-4.57.8-7.37.8s-5.24-.27-7.36-.8Z"/>
        <path class="cls-1" d="m405.4,173.77h15.17c1.7,0,3.37.12,5.02.35,1.64.23,3.19.6,4.65,1.09,1.46.5,2.79,1.14,3.99,1.92,1.2.78,2.24,1.73,3.12,2.84.88,1.11,1.56,2.4,2.05,3.84.49,1.45.73,3.1.73,4.95v.04c0,1.81-.25,3.44-.73,4.89-.49,1.45-1.17,2.74-2.05,3.84s-1.92,2.05-3.12,2.83-2.53,1.42-3.99,1.93c-1.45.5-3,.87-4.64,1.1-1.64.23-3.31.35-5.03.35h-15.17v-29.98Zm15.19,24.27c.93,0,1.86-.06,2.79-.18s1.83-.32,2.68-.6c.85-.28,1.64-.65,2.38-1.11.73-.46,1.37-1.04,1.91-1.72s.96-1.49,1.27-2.43c.31-.93.47-1.99.47-3.19v-.04c0-1.21-.16-2.28-.47-3.21-.31-.93-.74-1.74-1.27-2.43s-1.17-1.26-1.91-1.72c-.74-.46-1.53-.83-2.38-1.12-.85-.29-1.74-.49-2.68-.61s-1.87-.18-2.79-.18h-7.48v18.56h7.48Z"/>
        <path class="cls-1" d="m445.75,173.77h7.71v29.98h-7.71v-29.98Z"/>
        <path class="cls-1" d="m473.66,203.91c-1.76-.32-3.39-.78-4.9-1.38-1.5-.61-2.85-1.36-4.04-2.25s-2.2-1.92-3.04-3.08c-.84-1.15-1.48-2.44-1.93-3.84-.45-1.41-.67-2.93-.67-4.58v-.04c0-2.46.49-4.66,1.48-6.61.98-1.94,2.37-3.58,4.16-4.91,1.79-1.33,3.91-2.35,6.38-3.05,2.47-.7,5.18-1.05,8.15-1.05,1.98,0,3.86.16,5.62.48,1.76.32,3.39.78,4.88,1.37,1.5.6,2.84,1.35,4.04,2.24,1.2.9,2.22,1.93,3.06,3.08.84,1.16,1.48,2.44,1.93,3.85.44,1.41.66,2.95.66,4.59v.04c0,2.46-.49,4.66-1.49,6.59-.99,1.93-2.38,3.57-4.16,4.91-1.78,1.35-3.91,2.37-6.37,3.07-2.47.7-5.19,1.05-8.17,1.05-1.97,0-3.84-.16-5.6-.48Zm8.83-5.47c1.04-.19,2.01-.48,2.91-.86.91-.38,1.72-.85,2.46-1.41s1.36-1.21,1.89-1.95c.52-.74.93-1.56,1.22-2.48.29-.91.44-1.91.44-2.98v-.04c0-1.07-.15-2.07-.44-2.98-.29-.91-.7-1.73-1.22-2.47-.52-.73-1.15-1.38-1.89-1.95-.73-.56-1.55-1.03-2.46-1.41-.91-.37-1.87-.66-2.91-.86-1.04-.2-2.12-.3-3.23-.3s-2.21.1-3.24.3c-1.03.2-2,.48-2.9.86-.9.37-1.71.84-2.45,1.41-.74.56-1.37,1.21-1.89,1.95-.52.73-.93,1.55-1.22,2.46s-.44,1.9-.44,2.99v.04c0,1.07.15,2.07.44,2.98.29.91.7,1.74,1.22,2.48.52.74,1.15,1.39,1.89,1.95.73.56,1.55,1.03,2.45,1.41.9.38,1.86.67,2.9.86s2.11.29,3.24.29,2.19-.1,3.23-.29Z"/>
      </g>
    </g>
  </g>
</svg>