<svg id="Logo" xmlns="http://www.w3.org/2000/svg" width="123.898" height="97.181" viewBox="0 0 123.898 97.181">
  <path id="Pfad_1" data-name="Pfad 1" d="M172.774,170.8l-3.176,3.1v8h-1.905V159.541H169.6v12.054l11.556-12.054h2.4l-9.449,9.95L184.283,181.9h-2.323Z" transform="translate(-167.693 -159.234)" fill="#161615"/>
  <rect id="Rechteck_1" data-name="Rechteck 1" width="1.906" height="22.357" transform="translate(23.54 0.307)" fill="#161615"/>
  <g id="Gruppe_1" data-name="Gruppe 1" transform="translate(33.186 0)">
    <path id="Pfad_2" data-name="Pfad 2" d="M296.15,175.65a3.605,3.605,0,0,0-1.317-2.94,13.965,13.965,0,0,0-4.818-2.058,16.946,16.946,0,0,1-5.112-2.126,5.133,5.133,0,0,1-.163-8.438,8.8,8.8,0,0,1,5.445-1.6,9.091,9.091,0,0,1,4.019.86,6.558,6.558,0,0,1,2.75,2.4,6.249,6.249,0,0,1,.976,3.424h-1.921a4.677,4.677,0,0,0-1.581-3.689,6.183,6.183,0,0,0-4.244-1.394,6.729,6.729,0,0,0-4.121,1.146,3.566,3.566,0,0,0-1.533,2.991A3.373,3.373,0,0,0,285.91,167a12.834,12.834,0,0,0,4.415,1.9,20.874,20.874,0,0,1,4.6,1.706,6.542,6.542,0,0,1,2.354,2.111,5.249,5.249,0,0,1,.79,2.9,5.039,5.039,0,0,1-2.13,4.238,9.129,9.129,0,0,1-5.615,1.6,11.1,11.1,0,0,1-4.376-.845,6.67,6.67,0,0,1-3.021-2.365,6.066,6.066,0,0,1-1.03-3.486H283.8a4.448,4.448,0,0,0,1.781,3.731,7.581,7.581,0,0,0,4.74,1.367,7.073,7.073,0,0,0,4.229-1.151,3.591,3.591,0,0,0,1.6-3.056" transform="translate(-281.899 -158.483)" fill="#161615"/>
  </g>
  <path id="Pfad_3" data-name="Pfad 3" d="M364.9,159.541l8.319,19.731,8.349-19.731h2.541V181.9H382.2v-9.735l.155-9.981-8.4,19.716h-1.471l-8.365-19.639.155,9.842v9.8h-1.905V159.541Z" transform="translate(-305.806 -159.234)" fill="#161615"/>
  <path id="Pfad_4" data-name="Pfad 4" d="M479.993,171.18H469.444V180.3h12.129v1.6H467.539V159.541H481.5v1.6H469.444v8.445h10.548Z" transform="translate(-380.409 -159.233)" fill="#161615"/>
  <path id="Pfad_5" data-name="Pfad 5" d="M551.718,161.137h-7.73V181.9h-1.905v-20.76h-7.714v-1.6h17.349Z" transform="translate(-427.819 -159.233)" fill="#161615"/>
  <g id="Gruppe_2" data-name="Gruppe 2" transform="translate(0.055 81.254)">
    <path id="Pfad_6" data-name="Pfad 6" d="M173.616,457.043a1.392,1.392,0,0,0-.583-1.167,4.5,4.5,0,0,0-1.759-.689,7.956,7.956,0,0,1-1.824-.571,2.433,2.433,0,0,1-.962-.787,1.962,1.962,0,0,1-.314-1.126,2.1,2.1,0,0,1,.873-1.726,3.524,3.524,0,0,1,2.235-.681,3.628,3.628,0,0,1,2.37.731,2.343,2.343,0,0,1,.893,1.9h-.979a1.579,1.579,0,0,0-.649-1.289,2.927,2.927,0,0,0-3.182-.086,1.321,1.321,0,0,0-.583,1.114,1.2,1.2,0,0,0,.486,1.023,5.123,5.123,0,0,0,1.771.665,8.372,8.372,0,0,1,1.925.644,2.5,2.5,0,0,1,.95.824,2.267,2.267,0,0,1-.592,2.953,3.851,3.851,0,0,1-2.354.669,3.954,3.954,0,0,1-2.5-.746,2.3,2.3,0,0,1-.959-1.889h.979a1.7,1.7,0,0,0,.722,1.334,2.95,2.95,0,0,0,1.759.477,2.771,2.771,0,0,0,1.647-.449,1.346,1.346,0,0,0,.629-1.134" transform="translate(-167.881 -446.754)" fill="#161615"/>
    <path id="Pfad_7" data-name="Pfad 7" d="M205.746,443.079v2.26h1.827v.8h-1.827v5.889a1.844,1.844,0,0,0,.266,1.1,1.025,1.025,0,0,0,.885.359,6.044,6.044,0,0,0,.792-.082l.04.793a3.2,3.2,0,0,1-1.044.138,1.742,1.742,0,0,1-1.46-.583,2.746,2.746,0,0,1-.457-1.717v-5.891h-1.624v-.8h1.624v-2.26Z" transform="translate(-192.897 -441.635)" fill="#161615"/>
    <path id="Pfad_8" data-name="Pfad 8" d="M239.291,458.567a3.174,3.174,0,0,1-2.815,1.281,2.73,2.73,0,0,1-2.145-.82,3.594,3.594,0,0,1-.751-2.428v-5.744h.971v5.622q0,2.521,2.04,2.521a2.5,2.5,0,0,0,2.684-1.754v-6.389h.98v8.828h-.946Z" transform="translate(-214.489 -447.153)" fill="#161615"/>
    <path id="Pfad_9" data-name="Pfad 9" d="M273.258,446.317a4.6,4.6,0,0,0,.677,2.664,2.189,2.189,0,0,0,1.909.975,2.628,2.628,0,0,0,2.561-1.591V444.22a2.609,2.609,0,0,0-2.545-1.722,2.216,2.216,0,0,0-1.917.967,4.92,4.92,0,0,0-.685,2.852m-.988-.171a5.318,5.318,0,0,1,.918-3.276,2.953,2.953,0,0,1,2.493-1.22,3.07,3.07,0,0,1,2.725,1.411v-4.952h.971v12.532h-.914l-.041-1.175a3.152,3.152,0,0,1-2.757,1.338,2.943,2.943,0,0,1-2.46-1.228,5.347,5.347,0,0,1-.934-3.316Z" transform="translate(-241.937 -438.109)" fill="#161615"/>
    <path id="Pfad_10" data-name="Pfad 10" d="M314.862,451.856h-.98v-8.828h.98Zm-1.151-11.377a.657.657,0,0,1,.18-.467.64.64,0,0,1,.49-.19.642.642,0,0,1,.677.657.632.632,0,0,1-.184.462.659.659,0,0,1-.493.186.628.628,0,0,1-.669-.648" transform="translate(-271.336 -439.324)" fill="#161615"/>
    <path id="Pfad_11" data-name="Pfad 11" d="M334.259,455.011a4,4,0,0,0,.82,2.6,2.774,2.774,0,0,0,4.291,0,4.14,4.14,0,0,0,.82-2.68v-.188a4.5,4.5,0,0,0-.376-1.852,3.016,3.016,0,0,0-1.052-1.3,2.693,2.693,0,0,0-1.55-.461,2.61,2.61,0,0,0-2.129,1.023,4.142,4.142,0,0,0-.824,2.68Zm-.979-.269a5.2,5.2,0,0,1,.494-2.293,3.71,3.71,0,0,1,3.439-2.154,3.632,3.632,0,0,1,2.856,1.237,4.765,4.765,0,0,1,1.093,3.275v.2a5.239,5.239,0,0,1-.493,2.3,3.692,3.692,0,0,1-1.392,1.579,3.818,3.818,0,0,1-2.048.554,3.634,3.634,0,0,1-2.852-1.236,4.752,4.752,0,0,1-1.1-3.275Z" transform="translate(-285.218 -446.754)" fill="#161615"/>
    <path id="Pfad_12" data-name="Pfad 12" d="M381.176,454.8a3.9,3.9,0,0,0-.637-2.358,2.049,2.049,0,0,0-1.746-.865,2.22,2.22,0,0,0-2.056,1.215v4.218a2.225,2.225,0,0,0,2.072,1.208,2.041,2.041,0,0,0,1.726-.861,4.259,4.259,0,0,0,.64-2.558m1.51.172a5.286,5.286,0,0,1-.923,3.247,2.954,2.954,0,0,1-2.5,1.232,3.237,3.237,0,0,1-2.53-1.02v4.251h-1.509V450.458h1.379l.074.98a3.109,3.109,0,0,1,2.562-1.143,3.009,3.009,0,0,1,2.517,1.2,5.344,5.344,0,0,1,.926,3.337Z" transform="translate(-314.977 -446.754)" fill="#161615"/>
    <path id="Pfad_13" data-name="Pfad 13" d="M417.489,451.838h-1.51v-8.828h1.51Zm-1.631-11.17a.9.9,0,0,1,.224-.62.84.84,0,0,1,.665-.253.855.855,0,0,1,.669.253.894.894,0,0,1,.228.62.816.816,0,0,1-.9.857.857.857,0,0,1-.665-.245.87.87,0,0,1-.224-.612" transform="translate(-343.801 -439.305)" fill="#161615"/>
  </g>
  <rect id="Rechteck_2" data-name="Rechteck 2" width="1.509" height="12.532" transform="translate(78.712 81.254)" fill="#161615"/>
  <g id="Gruppe_3" data-name="Gruppe 3" transform="translate(84.807 82.821)">
    <path id="Pfad_14" data-name="Pfad 14" d="M462.744,458.137a2.646,2.646,0,0,0,1.347-.367,2.216,2.216,0,0,0,.921-.954V455h-1.183q-2.774,0-2.774,1.624a1.374,1.374,0,0,0,.473,1.109,1.821,1.821,0,0,0,1.216.4m2.5,1.151a3.145,3.145,0,0,1-.212-.93,3.369,3.369,0,0,1-2.512,1.093,3.115,3.115,0,0,1-2.142-.739,2.385,2.385,0,0,1-.836-1.872,2.5,2.5,0,0,1,1.048-2.142,4.947,4.947,0,0,1,2.95-.763h1.468v-.693a1.7,1.7,0,0,0-.473-1.261,1.9,1.9,0,0,0-1.4-.469,2.2,2.2,0,0,0-1.355.408,1.2,1.2,0,0,0-.547.987h-1.517a2.087,2.087,0,0,1,.469-1.277,3.2,3.2,0,0,1,1.272-.975,4.287,4.287,0,0,1,1.767-.359,3.493,3.493,0,0,1,2.391.763,2.752,2.752,0,0,1,.9,2.1v4.063a4.951,4.951,0,0,0,.31,1.934v.131Z" transform="translate(-459.546 -448.322)" fill="#161615"/>
    <path id="Pfad_15" data-name="Pfad 15" d="M499.471,443.5v2.137h1.648v1.167h-1.648v5.481a1.223,1.223,0,0,0,.22.8.927.927,0,0,0,.751.266,3.7,3.7,0,0,0,.718-.1v1.217a4.431,4.431,0,0,1-1.159.162,1.881,1.881,0,0,1-1.526-.612,2.63,2.63,0,0,1-.514-1.739v-5.474h-1.607v-1.167h1.607V443.5Z" transform="translate(-485.658 -443.502)" fill="#161615"/>
    <path id="Pfad_16" data-name="Pfad 16" d="M529.693,451.535a2.015,2.015,0,0,0-1.534.665,3.235,3.235,0,0,0-.767,1.865h4.423v-.115a2.877,2.877,0,0,0-.621-1.782,1.9,1.9,0,0,0-1.5-.633m.188,7.915a3.858,3.858,0,0,1-2.921-1.179,4.374,4.374,0,0,1-1.126-3.154v-.278a5.3,5.3,0,0,1,.5-2.346,3.913,3.913,0,0,1,1.4-1.615,3.525,3.525,0,0,1,1.954-.583,3.309,3.309,0,0,1,2.676,1.134,4.913,4.913,0,0,1,.955,3.247v.629h-5.98a3.134,3.134,0,0,0,.763,2.109,2.4,2.4,0,0,0,1.856.8,2.632,2.632,0,0,0,1.355-.327,3.41,3.41,0,0,0,.971-.865l.922.718a3.708,3.708,0,0,1-3.329,1.705" transform="translate(-506.572 -448.321)" fill="#161615"/>
    <path id="Pfad_17" data-name="Pfad 17" d="M570.2,456.945a1.112,1.112,0,0,0-.461-.951,4.45,4.45,0,0,0-1.608-.583,7.565,7.565,0,0,1-1.819-.588,2.581,2.581,0,0,1-1-.816,1.952,1.952,0,0,1-.322-1.126,2.29,2.29,0,0,1,.918-1.836,3.582,3.582,0,0,1,2.346-.751,3.687,3.687,0,0,1,2.435.775,2.462,2.462,0,0,1,.935,1.983H570.11a1.361,1.361,0,0,0-.526-1.069,1.972,1.972,0,0,0-1.326-.449,2.067,2.067,0,0,0-1.289.359,1.131,1.131,0,0,0-.465.939.915.915,0,0,0,.432.824,5.326,5.326,0,0,0,1.562.53,8.136,8.136,0,0,1,1.832.6,2.668,2.668,0,0,1,1.04.845,2.075,2.075,0,0,1,.339,1.2,2.259,2.259,0,0,1-.947,1.9,3.966,3.966,0,0,1-2.456.714,4.446,4.446,0,0,1-1.877-.375,3.046,3.046,0,0,1-1.277-1.049,2.529,2.529,0,0,1-.461-1.457h1.51a1.561,1.561,0,0,0,.608,1.2,2.356,2.356,0,0,0,1.5.445,2.428,2.428,0,0,0,1.374-.347,1.064,1.064,0,0,0,.519-.926" transform="translate(-534.139 -448.321)" fill="#161615"/>
  </g>
  <path id="Pfad_18" data-name="Pfad 18" d="M293.675,311.308V308.7h12.02L284.83,276.132l-10.022,15.643,12.514,19.532H235.559l12.514-19.532-10.023-15.643L217.186,308.7h12.02v2.61H212.169l25.882-40.395,11.7,18.252,11.695-18.252,11.694,18.252,11.7-18.252,25.882,40.395Zm-29.709-2.61h18.34l-9.17-14.312Zm-23.39,0h18.339l-9.17-14.312Zm10.842-16.922,10.023,15.643,10.023-15.643-10.023-15.643Z" transform="translate(-199.245 -238.243)" fill="#ffe800"/>
</svg>
