<?xml version="1.0" encoding="UTF-8"?>
<svg id="Layer_2" data-name="Layer 2" xmlns="http://www.w3.org/2000/svg" viewBox="0 0 1061.53 919.32">
  <defs>
    <style>
      .cls-1 {
        fill: #003b4e;
      }
    </style>
  </defs>
  <g id="Calque_1" data-name="Calque 1">
    <g>
      <g>
        <g>
          <g>
            <g>
              <polygon class="cls-1" points="530.77 0 514.18 28.73 526.66 28.73 530.77 21.61 534.88 28.73 547.35 28.73 530.77 0"/>
              <polygon class="cls-1" points="514.18 28.73 497.59 57.46 510.07 57.46 514.18 50.34 518.29 57.46 530.77 57.46 514.18 28.73"/>
              <polygon class="cls-1" points="547.35 28.73 530.77 57.46 543.24 57.46 547.35 50.34 551.46 57.46 563.94 57.46 547.35 28.73"/>
            </g>
            <g>
              <polygon class="cls-1" points="497.59 57.46 481.01 86.19 493.48 86.19 497.59 79.07 501.71 86.19 514.18 86.19 497.59 57.46"/>
              <polygon class="cls-1" points="481.01 86.19 464.42 114.91 476.9 114.91 481.01 107.79 485.12 114.91 497.59 114.91 481.01 86.19"/>
              <polygon class="cls-1" points="514.18 86.19 497.59 114.91 510.07 114.91 514.18 107.79 518.29 114.91 530.77 114.91 514.18 86.19"/>
            </g>
            <g>
              <polygon class="cls-1" points="563.94 57.46 547.35 86.19 559.83 86.19 563.94 79.07 568.05 86.19 580.53 86.19 563.94 57.46"/>
              <polygon class="cls-1" points="547.35 86.19 530.77 114.91 543.24 114.91 547.35 107.79 551.46 114.91 563.94 114.91 547.35 86.19"/>
              <polygon class="cls-1" points="580.53 86.19 563.94 114.91 576.42 114.91 580.53 107.79 584.64 114.91 597.11 114.91 580.53 86.19"/>
            </g>
          </g>
          <g>
            <g>
              <polygon class="cls-1" points="464.42 114.91 447.83 143.64 460.31 143.64 464.42 136.52 468.53 143.64 481.01 143.64 464.42 114.91"/>
              <polygon class="cls-1" points="447.83 143.64 431.25 172.37 443.72 172.37 447.83 165.25 451.95 172.37 464.42 172.37 447.83 143.64"/>
              <polygon class="cls-1" points="481.01 143.64 464.42 172.37 476.9 172.37 481.01 165.25 485.12 172.37 497.59 172.37 481.01 143.64"/>
            </g>
            <g>
              <polygon class="cls-1" points="431.25 172.37 414.66 201.1 427.14 201.1 431.25 193.98 435.36 201.1 447.83 201.1 431.25 172.37"/>
              <polygon class="cls-1" points="414.66 201.1 398.08 229.83 410.55 229.83 414.66 222.71 418.77 229.83 431.25 229.83 414.66 201.1"/>
              <polygon class="cls-1" points="447.83 201.1 431.25 229.83 443.72 229.83 447.83 222.71 451.95 229.83 464.42 229.83 447.83 201.1"/>
            </g>
            <g>
              <polygon class="cls-1" points="497.59 172.37 481.01 201.1 493.48 201.1 497.59 193.98 501.71 201.1 514.18 201.1 497.59 172.37"/>
              <polygon class="cls-1" points="481.01 201.1 464.42 229.83 476.9 229.83 481.01 222.71 485.12 229.83 497.59 229.83 481.01 201.1"/>
              <polygon class="cls-1" points="514.18 201.1 497.59 229.83 510.07 229.83 514.18 222.71 518.29 229.83 530.77 229.83 514.18 201.1"/>
            </g>
          </g>
          <g>
            <g>
              <polygon class="cls-1" points="597.11 114.91 580.53 143.64 593 143.64 597.11 136.52 601.22 143.64 613.7 143.64 597.11 114.91"/>
              <polygon class="cls-1" points="580.53 143.64 563.94 172.37 576.42 172.37 580.53 165.25 584.64 172.37 597.11 172.37 580.53 143.64"/>
              <polygon class="cls-1" points="613.7 143.64 597.11 172.37 609.59 172.37 613.7 165.25 617.81 172.37 630.29 172.37 613.7 143.64"/>
            </g>
            <g>
              <polygon class="cls-1" points="563.94 172.37 547.35 201.1 559.83 201.1 563.94 193.98 568.05 201.1 580.53 201.1 563.94 172.37"/>
              <polygon class="cls-1" points="547.35 201.1 530.77 229.83 543.24 229.83 547.35 222.71 551.46 229.83 563.94 229.83 547.35 201.1"/>
              <polygon class="cls-1" points="580.53 201.1 563.94 229.83 576.42 229.83 580.53 222.71 584.64 229.83 597.11 229.83 580.53 201.1"/>
            </g>
            <g>
              <polygon class="cls-1" points="630.29 172.37 613.7 201.1 626.18 201.1 630.29 193.98 634.4 201.1 646.87 201.1 630.29 172.37"/>
              <polygon class="cls-1" points="613.7 201.1 597.11 229.83 609.59 229.83 613.7 222.71 617.81 229.83 630.29 229.83 613.7 201.1"/>
              <polygon class="cls-1" points="646.87 201.1 630.29 229.83 642.76 229.83 646.87 222.71 650.98 229.83 663.46 229.83 646.87 201.1"/>
            </g>
          </g>
        </g>
        <g>
          <g>
            <g>
              <polygon class="cls-1" points="398.08 229.83 381.49 258.56 393.96 258.56 398.08 251.44 402.19 258.56 414.66 258.56 398.08 229.83"/>
              <polygon class="cls-1" points="381.49 258.56 364.9 287.29 377.38 287.29 381.49 280.17 385.6 287.29 398.08 287.29 381.49 258.56"/>
              <polygon class="cls-1" points="414.66 258.56 398.08 287.29 410.55 287.29 414.66 280.17 418.77 287.29 431.25 287.29 414.66 258.56"/>
            </g>
            <g>
              <polygon class="cls-1" points="364.9 287.29 348.32 316.01 360.79 316.01 364.9 308.89 369.01 316.01 381.49 316.01 364.9 287.29"/>
              <polygon class="cls-1" points="348.32 316.01 331.73 344.74 344.21 344.74 348.32 337.62 352.43 344.74 364.9 344.74 348.32 316.01"/>
              <polygon class="cls-1" points="381.49 316.01 364.9 344.74 377.38 344.74 381.49 337.62 385.6 344.74 398.08 344.74 381.49 316.01"/>
            </g>
            <g>
              <polygon class="cls-1" points="431.25 287.29 414.66 316.01 427.14 316.01 431.25 308.89 435.36 316.01 447.83 316.01 431.25 287.29"/>
              <polygon class="cls-1" points="414.66 316.01 398.08 344.74 410.55 344.74 414.66 337.62 418.77 344.74 431.25 344.74 414.66 316.01"/>
              <polygon class="cls-1" points="447.83 316.01 431.25 344.74 443.72 344.74 447.83 337.62 451.95 344.74 464.42 344.74 447.83 316.01"/>
            </g>
          </g>
          <g>
            <g>
              <polygon class="cls-1" points="331.73 344.74 315.14 373.47 327.62 373.47 331.73 366.35 335.84 373.47 348.32 373.47 331.73 344.74"/>
              <polygon class="cls-1" points="315.14 373.47 298.56 402.2 311.03 402.2 315.14 395.08 319.25 402.2 331.73 402.2 315.14 373.47"/>
              <polygon class="cls-1" points="348.32 373.47 331.73 402.2 344.21 402.2 348.32 395.08 352.43 402.2 364.9 402.2 348.32 373.47"/>
            </g>
            <g>
              <polygon class="cls-1" points="298.56 402.2 281.97 430.93 294.45 430.93 298.56 423.81 302.67 430.93 315.14 430.93 298.56 402.2"/>
              <polygon class="cls-1" points="281.97 430.93 265.38 459.66 277.86 459.66 281.97 452.54 286.08 459.66 298.56 459.66 281.97 430.93"/>
              <polygon class="cls-1" points="315.14 430.93 298.56 459.66 311.03 459.66 315.14 452.54 319.25 459.66 331.73 459.66 315.14 430.93"/>
            </g>
            <g>
              <polygon class="cls-1" points="364.9 402.2 348.32 430.93 360.79 430.93 364.9 423.81 369.01 430.93 381.49 430.93 364.9 402.2"/>
              <polygon class="cls-1" points="348.32 430.93 331.73 459.66 344.21 459.66 348.32 452.54 352.43 459.66 364.9 459.66 348.32 430.93"/>
              <polygon class="cls-1" points="381.49 430.93 364.9 459.66 377.38 459.66 381.49 452.54 385.6 459.66 398.08 459.66 381.49 430.93"/>
            </g>
          </g>
          <g>
            <g>
              <polygon class="cls-1" points="464.42 344.74 447.83 373.47 460.31 373.47 464.42 366.35 468.53 373.47 481.01 373.47 464.42 344.74"/>
              <polygon class="cls-1" points="447.83 373.47 431.25 402.2 443.72 402.2 447.83 395.08 451.95 402.2 464.42 402.2 447.83 373.47"/>
              <polygon class="cls-1" points="481.01 373.47 464.42 402.2 476.9 402.2 481.01 395.08 485.12 402.2 497.59 402.2 481.01 373.47"/>
            </g>
            <g>
              <polygon class="cls-1" points="431.25 402.2 414.66 430.93 427.14 430.93 431.25 423.81 435.36 430.93 447.83 430.93 431.25 402.2"/>
              <polygon class="cls-1" points="414.66 430.93 398.08 459.66 410.55 459.66 414.66 452.54 418.77 459.66 431.25 459.66 414.66 430.93"/>
              <polygon class="cls-1" points="447.83 430.93 431.25 459.66 443.72 459.66 447.83 452.54 451.95 459.66 464.42 459.66 447.83 430.93"/>
            </g>
            <g>
              <polygon class="cls-1" points="497.59 402.2 481.01 430.93 493.48 430.93 497.59 423.81 501.71 430.93 514.18 430.93 497.59 402.2"/>
              <polygon class="cls-1" points="481.01 430.93 464.42 459.66 476.9 459.66 481.01 452.54 485.12 459.66 497.59 459.66 481.01 430.93"/>
              <polygon class="cls-1" points="514.18 430.93 497.59 459.66 510.07 459.66 514.18 452.54 518.29 459.66 530.77 459.66 514.18 430.93"/>
            </g>
          </g>
        </g>
        <g>
          <g>
            <g>
              <polygon class="cls-1" points="663.46 229.83 646.87 258.56 659.35 258.56 663.46 251.44 667.57 258.56 680.05 258.56 663.46 229.83"/>
              <polygon class="cls-1" points="646.87 258.56 630.29 287.29 642.76 287.29 646.87 280.17 650.98 287.29 663.46 287.29 646.87 258.56"/>
              <polygon class="cls-1" points="680.05 258.56 663.46 287.29 675.93 287.29 680.05 280.17 684.16 287.29 696.63 287.29 680.05 258.56"/>
            </g>
            <g>
              <polygon class="cls-1" points="630.29 287.29 613.7 316.01 626.18 316.01 630.29 308.89 634.4 316.01 646.87 316.01 630.29 287.29"/>
              <polygon class="cls-1" points="613.7 316.01 597.11 344.74 609.59 344.74 613.7 337.62 617.81 344.74 630.29 344.74 613.7 316.01"/>
              <polygon class="cls-1" points="646.87 316.01 630.29 344.74 642.76 344.74 646.87 337.62 650.98 344.74 663.46 344.74 646.87 316.01"/>
            </g>
            <g>
              <polygon class="cls-1" points="696.63 287.29 680.05 316.01 692.52 316.01 696.63 308.89 700.74 316.01 713.22 316.01 696.63 287.29"/>
              <polygon class="cls-1" points="680.05 316.01 663.46 344.74 675.93 344.74 680.05 337.62 684.16 344.74 696.63 344.74 680.05 316.01"/>
              <polygon class="cls-1" points="713.22 316.01 696.63 344.74 709.11 344.74 713.22 337.62 717.33 344.74 729.8 344.74 713.22 316.01"/>
            </g>
          </g>
          <g>
            <g>
              <polygon class="cls-1" points="597.11 344.74 580.53 373.47 593 373.47 597.11 366.35 601.22 373.47 613.7 373.47 597.11 344.74"/>
              <polygon class="cls-1" points="580.53 373.47 563.94 402.2 576.42 402.2 580.53 395.08 584.64 402.2 597.11 402.2 580.53 373.47"/>
              <polygon class="cls-1" points="613.7 373.47 597.11 402.2 609.59 402.2 613.7 395.08 617.81 402.2 630.29 402.2 613.7 373.47"/>
            </g>
            <g>
              <polygon class="cls-1" points="563.94 402.2 547.35 430.93 559.83 430.93 563.94 423.81 568.05 430.93 580.53 430.93 563.94 402.2"/>
              <polygon class="cls-1" points="547.35 430.93 530.77 459.66 543.24 459.66 547.35 452.54 551.46 459.66 563.94 459.66 547.35 430.93"/>
              <polygon class="cls-1" points="580.53 430.93 563.94 459.66 576.42 459.66 580.53 452.54 584.64 459.66 597.11 459.66 580.53 430.93"/>
            </g>
            <g>
              <polygon class="cls-1" points="630.29 402.2 613.7 430.93 626.18 430.93 630.29 423.81 634.4 430.93 646.87 430.93 630.29 402.2"/>
              <polygon class="cls-1" points="613.7 430.93 597.11 459.66 609.59 459.66 613.7 452.54 617.81 459.66 630.29 459.66 613.7 430.93"/>
              <polygon class="cls-1" points="646.87 430.93 630.29 459.66 642.76 459.66 646.87 452.54 650.98 459.66 663.46 459.66 646.87 430.93"/>
            </g>
          </g>
          <g>
            <g>
              <polygon class="cls-1" points="729.8 344.74 713.22 373.47 725.69 373.47 729.8 366.35 733.92 373.47 746.39 373.47 729.8 344.74"/>
              <polygon class="cls-1" points="713.22 373.47 696.63 402.2 709.11 402.2 713.22 395.08 717.33 402.2 729.8 402.2 713.22 373.47"/>
              <polygon class="cls-1" points="746.39 373.47 729.8 402.2 742.28 402.2 746.39 395.08 750.5 402.2 762.98 402.2 746.39 373.47"/>
            </g>
            <g>
              <polygon class="cls-1" points="696.63 402.2 680.05 430.93 692.52 430.93 696.63 423.81 700.74 430.93 713.22 430.93 696.63 402.2"/>
              <polygon class="cls-1" points="680.05 430.93 663.46 459.66 675.93 459.66 680.05 452.54 684.16 459.66 696.63 459.66 680.05 430.93"/>
              <polygon class="cls-1" points="713.22 430.93 696.63 459.66 709.11 459.66 713.22 452.54 717.33 459.66 729.8 459.66 713.22 430.93"/>
            </g>
            <g>
              <polygon class="cls-1" points="762.98 402.2 746.39 430.93 758.87 430.93 762.98 423.81 767.09 430.93 779.56 430.93 762.98 402.2"/>
              <polygon class="cls-1" points="746.39 430.93 729.8 459.66 742.28 459.66 746.39 452.54 750.5 459.66 762.98 459.66 746.39 430.93"/>
              <polygon class="cls-1" points="779.56 430.93 762.98 459.66 775.45 459.66 779.56 452.54 783.68 459.66 796.15 459.66 779.56 430.93"/>
            </g>
          </g>
        </g>
      </g>
      <g>
        <g>
          <g>
            <g>
              <polygon class="cls-1" points="265.38 459.66 248.8 488.39 261.27 488.39 265.38 481.27 269.49 488.39 281.97 488.39 265.38 459.66"/>
              <polygon class="cls-1" points="248.8 488.39 232.21 517.12 244.69 517.12 248.8 509.99 252.91 517.12 265.38 517.12 248.8 488.39"/>
              <polygon class="cls-1" points="281.97 488.39 265.38 517.12 277.86 517.12 281.97 509.99 286.08 517.12 298.56 517.12 281.97 488.39"/>
            </g>
            <g>
              <polygon class="cls-1" points="232.21 517.12 215.62 545.84 228.1 545.84 232.21 538.72 236.32 545.84 248.8 545.84 232.21 517.12"/>
              <polygon class="cls-1" points="215.62 545.84 199.04 574.57 211.51 574.57 215.62 567.45 219.74 574.57 232.21 574.57 215.62 545.84"/>
              <polygon class="cls-1" points="248.8 545.84 232.21 574.57 244.69 574.57 248.8 567.45 252.91 574.57 265.38 574.57 248.8 545.84"/>
            </g>
            <g>
              <polygon class="cls-1" points="298.56 517.12 281.97 545.84 294.45 545.84 298.56 538.72 302.67 545.84 315.14 545.84 298.56 517.12"/>
              <polygon class="cls-1" points="281.97 545.84 265.38 574.57 277.86 574.57 281.97 567.45 286.08 574.57 298.56 574.57 281.97 545.84"/>
              <polygon class="cls-1" points="315.14 545.84 298.56 574.57 311.03 574.57 315.14 567.45 319.25 574.57 331.73 574.57 315.14 545.84"/>
            </g>
          </g>
          <g>
            <g>
              <polygon class="cls-1" points="199.04 574.57 182.45 603.3 194.93 603.3 199.04 596.18 203.15 603.3 215.62 603.3 199.04 574.57"/>
              <polygon class="cls-1" points="182.45 603.3 165.86 632.03 178.34 632.03 182.45 624.91 186.56 632.03 199.04 632.03 182.45 603.3"/>
              <polygon class="cls-1" points="215.62 603.3 199.04 632.03 211.51 632.03 215.62 624.91 219.74 632.03 232.21 632.03 215.62 603.3"/>
            </g>
            <g>
              <polygon class="cls-1" points="165.86 632.03 149.28 660.76 161.75 660.76 165.86 653.64 169.98 660.76 182.45 660.76 165.86 632.03"/>
              <polygon class="cls-1" points="149.28 660.76 132.69 689.49 145.17 689.49 149.28 682.37 153.39 689.49 165.86 689.49 149.28 660.76"/>
              <polygon class="cls-1" points="182.45 660.76 165.86 689.49 178.34 689.49 182.45 682.37 186.56 689.49 199.04 689.49 182.45 660.76"/>
            </g>
            <g>
              <polygon class="cls-1" points="232.21 632.03 215.62 660.76 228.1 660.76 232.21 653.64 236.32 660.76 248.8 660.76 232.21 632.03"/>
              <polygon class="cls-1" points="215.62 660.76 199.04 689.49 211.51 689.49 215.62 682.37 219.74 689.49 232.21 689.49 215.62 660.76"/>
              <polygon class="cls-1" points="248.8 660.76 232.21 689.49 244.69 689.49 248.8 682.37 252.91 689.49 265.38 689.49 248.8 660.76"/>
            </g>
          </g>
          <g>
            <g>
              <polygon class="cls-1" points="331.73 574.57 315.14 603.3 327.62 603.3 331.73 596.18 335.84 603.3 348.32 603.3 331.73 574.57"/>
              <polygon class="cls-1" points="315.14 603.3 298.56 632.03 311.03 632.03 315.14 624.91 319.25 632.03 331.73 632.03 315.14 603.3"/>
              <polygon class="cls-1" points="348.32 603.3 331.73 632.03 344.21 632.03 348.32 624.91 352.43 632.03 364.9 632.03 348.32 603.3"/>
            </g>
            <g>
              <polygon class="cls-1" points="298.56 632.03 281.97 660.76 294.45 660.76 298.56 653.64 302.67 660.76 315.14 660.76 298.56 632.03"/>
              <polygon class="cls-1" points="281.97 660.76 265.38 689.49 277.86 689.49 281.97 682.37 286.08 689.49 298.56 689.49 281.97 660.76"/>
              <polygon class="cls-1" points="315.14 660.76 298.56 689.49 311.03 689.49 315.14 682.37 319.25 689.49 331.73 689.49 315.14 660.76"/>
            </g>
            <g>
              <polygon class="cls-1" points="364.9 632.03 348.32 660.76 360.79 660.76 364.9 653.64 369.01 660.76 381.49 660.76 364.9 632.03"/>
              <polygon class="cls-1" points="348.32 660.76 331.73 689.49 344.21 689.49 348.32 682.37 352.43 689.49 364.9 689.49 348.32 660.76"/>
              <polygon class="cls-1" points="381.49 660.76 364.9 689.49 377.38 689.49 381.49 682.37 385.6 689.49 398.08 689.49 381.49 660.76"/>
            </g>
          </g>
        </g>
        <g>
          <g>
            <g>
              <polygon class="cls-1" points="132.69 689.49 116.11 718.22 128.58 718.22 132.69 711.1 136.8 718.22 149.28 718.22 132.69 689.49"/>
              <polygon class="cls-1" points="116.11 718.22 99.52 746.94 111.99 746.94 116.11 739.82 120.22 746.94 132.69 746.94 116.11 718.22"/>
              <polygon class="cls-1" points="149.28 718.22 132.69 746.94 145.17 746.94 149.28 739.82 153.39 746.94 165.86 746.94 149.28 718.22"/>
            </g>
            <g>
              <polygon class="cls-1" points="99.52 746.94 82.93 775.67 95.41 775.67 99.52 768.55 103.63 775.67 116.11 775.67 99.52 746.94"/>
              <polygon class="cls-1" points="82.93 775.67 66.35 804.4 78.82 804.4 82.93 797.28 87.04 804.4 99.52 804.4 82.93 775.67"/>
              <polygon class="cls-1" points="116.11 775.67 99.52 804.4 111.99 804.4 116.11 797.28 120.22 804.4 132.69 804.4 116.11 775.67"/>
            </g>
            <g>
              <polygon class="cls-1" points="165.86 746.94 149.28 775.67 161.75 775.67 165.86 768.55 169.98 775.67 182.45 775.67 165.86 746.94"/>
              <polygon class="cls-1" points="149.28 775.67 132.69 804.4 145.17 804.4 149.28 797.28 153.39 804.4 165.86 804.4 149.28 775.67"/>
              <polygon class="cls-1" points="182.45 775.67 165.86 804.4 178.34 804.4 182.45 797.28 186.56 804.4 199.04 804.4 182.45 775.67"/>
            </g>
          </g>
          <g>
            <g>
              <polygon class="cls-1" points="66.35 804.4 49.76 833.13 62.24 833.13 66.35 826.01 70.46 833.13 82.93 833.13 66.35 804.4"/>
              <polygon class="cls-1" points="49.76 833.13 33.17 861.86 45.65 861.86 49.76 854.74 53.87 861.86 66.35 861.86 49.76 833.13"/>
              <polygon class="cls-1" points="82.93 833.13 66.35 861.86 78.82 861.86 82.93 854.74 87.04 861.86 99.52 861.86 82.93 833.13"/>
            </g>
            <g>
              <polygon class="cls-1" points="33.17 861.86 16.59 890.59 29.06 890.59 33.17 883.47 37.28 890.59 49.76 890.59 33.17 861.86"/>
              <polygon class="cls-1" points="16.59 890.59 0 919.32 12.48 919.32 16.59 912.2 20.7 919.32 33.17 919.32 16.59 890.59"/>
              <polygon class="cls-1" points="49.76 890.59 33.17 919.32 45.65 919.32 49.76 912.2 53.87 919.32 66.35 919.32 49.76 890.59"/>
            </g>
            <g>
              <polygon class="cls-1" points="99.52 861.86 82.93 890.59 95.41 890.59 99.52 883.47 103.63 890.59 116.11 890.59 99.52 861.86"/>
              <polygon class="cls-1" points="82.93 890.59 66.35 919.32 78.82 919.32 82.93 912.2 87.04 919.32 99.52 919.32 82.93 890.59"/>
              <polygon class="cls-1" points="116.11 890.59 99.52 919.32 111.99 919.32 116.11 912.2 120.22 919.32 132.69 919.32 116.11 890.59"/>
            </g>
          </g>
          <g>
            <g>
              <polygon class="cls-1" points="199.04 804.4 182.45 833.13 194.93 833.13 199.04 826.01 203.15 833.13 215.62 833.13 199.04 804.4"/>
              <polygon class="cls-1" points="182.45 833.13 165.86 861.86 178.34 861.86 182.45 854.74 186.56 861.86 199.04 861.86 182.45 833.13"/>
              <polygon class="cls-1" points="215.62 833.13 199.04 861.86 211.51 861.86 215.62 854.74 219.74 861.86 232.21 861.86 215.62 833.13"/>
            </g>
            <g>
              <polygon class="cls-1" points="165.86 861.86 149.28 890.59 161.75 890.59 165.86 883.47 169.98 890.59 182.45 890.59 165.86 861.86"/>
              <polygon class="cls-1" points="149.28 890.59 132.69 919.32 145.17 919.32 149.28 912.2 153.39 919.32 165.86 919.32 149.28 890.59"/>
              <polygon class="cls-1" points="182.45 890.59 165.86 919.32 178.34 919.32 182.45 912.2 186.56 919.32 199.04 919.32 182.45 890.59"/>
            </g>
            <g>
              <polygon class="cls-1" points="232.21 861.86 215.62 890.59 228.1 890.59 232.21 883.47 236.32 890.59 248.8 890.59 232.21 861.86"/>
              <polygon class="cls-1" points="215.62 890.59 199.04 919.32 211.51 919.32 215.62 912.2 219.74 919.32 232.21 919.32 215.62 890.59"/>
              <polygon class="cls-1" points="248.8 890.59 232.21 919.32 244.69 919.32 248.8 912.2 252.91 919.32 265.38 919.32 248.8 890.59"/>
            </g>
          </g>
        </g>
        <g>
          <g>
            <g>
              <polygon class="cls-1" points="398.08 689.49 381.49 718.22 393.96 718.22 398.08 711.1 402.19 718.22 414.66 718.22 398.08 689.49"/>
              <polygon class="cls-1" points="381.49 718.22 364.9 746.94 377.38 746.94 381.49 739.82 385.6 746.94 398.08 746.94 381.49 718.22"/>
              <polygon class="cls-1" points="414.66 718.22 398.08 746.94 410.55 746.94 414.66 739.82 418.77 746.94 431.25 746.94 414.66 718.22"/>
            </g>
            <g>
              <polygon class="cls-1" points="364.9 746.94 348.32 775.67 360.79 775.67 364.9 768.55 369.01 775.67 381.49 775.67 364.9 746.94"/>
              <polygon class="cls-1" points="348.32 775.67 331.73 804.4 344.21 804.4 348.32 797.28 352.43 804.4 364.9 804.4 348.32 775.67"/>
              <polygon class="cls-1" points="381.49 775.67 364.9 804.4 377.38 804.4 381.49 797.28 385.6 804.4 398.08 804.4 381.49 775.67"/>
            </g>
            <g>
              <polygon class="cls-1" points="431.25 746.94 414.66 775.67 427.14 775.67 431.25 768.55 435.36 775.67 447.83 775.67 431.25 746.94"/>
              <polygon class="cls-1" points="414.66 775.67 398.08 804.4 410.55 804.4 414.66 797.28 418.77 804.4 431.25 804.4 414.66 775.67"/>
              <polygon class="cls-1" points="447.83 775.67 431.25 804.4 443.72 804.4 447.83 797.28 451.95 804.4 464.42 804.4 447.83 775.67"/>
            </g>
          </g>
          <g>
            <g>
              <polygon class="cls-1" points="331.73 804.4 315.14 833.13 327.62 833.13 331.73 826.01 335.84 833.13 348.32 833.13 331.73 804.4"/>
              <polygon class="cls-1" points="315.14 833.13 298.56 861.86 311.03 861.86 315.14 854.74 319.25 861.86 331.73 861.86 315.14 833.13"/>
              <polygon class="cls-1" points="348.32 833.13 331.73 861.86 344.21 861.86 348.32 854.74 352.43 861.86 364.9 861.86 348.32 833.13"/>
            </g>
            <g>
              <polygon class="cls-1" points="298.56 861.86 281.97 890.59 294.45 890.59 298.56 883.47 302.67 890.59 315.14 890.59 298.56 861.86"/>
              <polygon class="cls-1" points="281.97 890.59 265.38 919.32 277.86 919.32 281.97 912.2 286.08 919.32 298.56 919.32 281.97 890.59"/>
              <polygon class="cls-1" points="315.14 890.59 298.56 919.32 311.03 919.32 315.14 912.2 319.25 919.32 331.73 919.32 315.14 890.59"/>
            </g>
            <g>
              <polygon class="cls-1" points="364.9 861.86 348.32 890.59 360.79 890.59 364.9 883.47 369.01 890.59 381.49 890.59 364.9 861.86"/>
              <polygon class="cls-1" points="348.32 890.59 331.73 919.32 344.21 919.32 348.32 912.2 352.43 919.32 364.9 919.32 348.32 890.59"/>
              <polygon class="cls-1" points="381.49 890.59 364.9 919.32 377.38 919.32 381.49 912.2 385.6 919.32 398.08 919.32 381.49 890.59"/>
            </g>
          </g>
          <g>
            <g>
              <polygon class="cls-1" points="464.42 804.4 447.83 833.13 460.31 833.13 464.42 826.01 468.53 833.13 481.01 833.13 464.42 804.4"/>
              <polygon class="cls-1" points="447.83 833.13 431.25 861.86 443.72 861.86 447.83 854.74 451.95 861.86 464.42 861.86 447.83 833.13"/>
              <polygon class="cls-1" points="481.01 833.13 464.42 861.86 476.9 861.86 481.01 854.74 485.12 861.86 497.59 861.86 481.01 833.13"/>
            </g>
            <g>
              <polygon class="cls-1" points="431.25 861.86 414.66 890.59 427.14 890.59 431.25 883.47 435.36 890.59 447.83 890.59 431.25 861.86"/>
              <polygon class="cls-1" points="414.66 890.59 398.08 919.32 410.55 919.32 414.66 912.2 418.77 919.32 431.25 919.32 414.66 890.59"/>
              <polygon class="cls-1" points="447.83 890.59 431.25 919.32 443.72 919.32 447.83 912.2 451.95 919.32 464.42 919.32 447.83 890.59"/>
            </g>
            <g>
              <polygon class="cls-1" points="497.59 861.86 481.01 890.59 493.48 890.59 497.59 883.47 501.71 890.59 514.18 890.59 497.59 861.86"/>
              <polygon class="cls-1" points="481.01 890.59 464.42 919.32 476.9 919.32 481.01 912.2 485.12 919.32 497.59 919.32 481.01 890.59"/>
              <polygon class="cls-1" points="514.18 890.59 497.59 919.32 510.07 919.32 514.18 912.2 518.29 919.32 530.77 919.32 514.18 890.59"/>
            </g>
          </g>
        </g>
      </g>
      <g>
        <g>
          <g>
            <g>
              <polygon class="cls-1" points="796.15 459.66 779.56 488.39 792.04 488.39 796.15 481.27 800.26 488.39 812.74 488.39 796.15 459.66"/>
              <polygon class="cls-1" points="779.56 488.39 762.98 517.12 775.45 517.12 779.56 509.99 783.68 517.12 796.15 517.12 779.56 488.39"/>
              <polygon class="cls-1" points="812.74 488.39 796.15 517.12 808.63 517.12 812.74 509.99 816.85 517.12 829.32 517.12 812.74 488.39"/>
            </g>
            <g>
              <polygon class="cls-1" points="762.98 517.12 746.39 545.84 758.87 545.84 762.98 538.72 767.09 545.84 779.56 545.84 762.98 517.12"/>
              <polygon class="cls-1" points="746.39 545.84 729.8 574.57 742.28 574.57 746.39 567.45 750.5 574.57 762.98 574.57 746.39 545.84"/>
              <polygon class="cls-1" points="779.56 545.84 762.98 574.57 775.45 574.57 779.56 567.45 783.68 574.57 796.15 574.57 779.56 545.84"/>
            </g>
            <g>
              <polygon class="cls-1" points="829.32 517.12 812.74 545.84 825.21 545.84 829.32 538.72 833.43 545.84 845.91 545.84 829.32 517.12"/>
              <polygon class="cls-1" points="812.74 545.84 796.15 574.57 808.63 574.57 812.74 567.45 816.85 574.57 829.32 574.57 812.74 545.84"/>
              <polygon class="cls-1" points="845.91 545.84 829.32 574.57 841.8 574.57 845.91 567.45 850.02 574.57 862.5 574.57 845.91 545.84"/>
            </g>
          </g>
          <g>
            <g>
              <polygon class="cls-1" points="729.8 574.57 713.22 603.3 725.69 603.3 729.8 596.18 733.92 603.3 746.39 603.3 729.8 574.57"/>
              <polygon class="cls-1" points="713.22 603.3 696.63 632.03 709.11 632.03 713.22 624.91 717.33 632.03 729.8 632.03 713.22 603.3"/>
              <polygon class="cls-1" points="746.39 603.3 729.8 632.03 742.28 632.03 746.39 624.91 750.5 632.03 762.98 632.03 746.39 603.3"/>
            </g>
            <g>
              <polygon class="cls-1" points="696.63 632.03 680.05 660.76 692.52 660.76 696.63 653.64 700.74 660.76 713.22 660.76 696.63 632.03"/>
              <polygon class="cls-1" points="680.05 660.76 663.46 689.49 675.93 689.49 680.05 682.37 684.16 689.49 696.63 689.49 680.05 660.76"/>
              <polygon class="cls-1" points="713.22 660.76 696.63 689.49 709.11 689.49 713.22 682.37 717.33 689.49 729.8 689.49 713.22 660.76"/>
            </g>
            <g>
              <polygon class="cls-1" points="762.98 632.03 746.39 660.76 758.87 660.76 762.98 653.64 767.09 660.76 779.56 660.76 762.98 632.03"/>
              <polygon class="cls-1" points="746.39 660.76 729.8 689.49 742.28 689.49 746.39 682.37 750.5 689.49 762.98 689.49 746.39 660.76"/>
              <polygon class="cls-1" points="779.56 660.76 762.98 689.49 775.45 689.49 779.56 682.37 783.68 689.49 796.15 689.49 779.56 660.76"/>
            </g>
          </g>
          <g>
            <g>
              <polygon class="cls-1" points="862.5 574.57 845.91 603.3 858.39 603.3 862.5 596.18 866.61 603.3 879.08 603.3 862.5 574.57"/>
              <polygon class="cls-1" points="845.91 603.3 829.32 632.03 841.8 632.03 845.91 624.91 850.02 632.03 862.5 632.03 845.91 603.3"/>
              <polygon class="cls-1" points="879.08 603.3 862.5 632.03 874.97 632.03 879.08 624.91 883.19 632.03 895.67 632.03 879.08 603.3"/>
            </g>
            <g>
              <polygon class="cls-1" points="829.32 632.03 812.74 660.76 825.21 660.76 829.32 653.64 833.43 660.76 845.91 660.76 829.32 632.03"/>
              <polygon class="cls-1" points="812.74 660.76 796.15 689.49 808.63 689.49 812.74 682.37 816.85 689.49 829.32 689.49 812.74 660.76"/>
              <polygon class="cls-1" points="845.91 660.76 829.32 689.49 841.8 689.49 845.91 682.37 850.02 689.49 862.5 689.49 845.91 660.76"/>
            </g>
            <g>
              <polygon class="cls-1" points="895.67 632.03 879.08 660.76 891.56 660.76 895.67 653.64 899.78 660.76 912.26 660.76 895.67 632.03"/>
              <polygon class="cls-1" points="879.08 660.76 862.5 689.49 874.97 689.49 879.08 682.37 883.19 689.49 895.67 689.49 879.08 660.76"/>
              <polygon class="cls-1" points="912.26 660.76 895.67 689.49 908.15 689.49 912.26 682.37 916.37 689.49 928.84 689.49 912.26 660.76"/>
            </g>
          </g>
        </g>
        <g>
          <g>
            <g>
              <polygon class="cls-1" points="663.46 689.49 646.87 718.22 659.35 718.22 663.46 711.1 667.57 718.22 680.05 718.22 663.46 689.49"/>
              <polygon class="cls-1" points="646.87 718.22 630.29 746.94 642.76 746.94 646.87 739.82 650.98 746.94 663.46 746.94 646.87 718.22"/>
              <polygon class="cls-1" points="680.05 718.22 663.46 746.94 675.93 746.94 680.05 739.82 684.16 746.94 696.63 746.94 680.05 718.22"/>
            </g>
            <g>
              <polygon class="cls-1" points="630.29 746.94 613.7 775.67 626.18 775.67 630.29 768.55 634.4 775.67 646.87 775.67 630.29 746.94"/>
              <polygon class="cls-1" points="613.7 775.67 597.11 804.4 609.59 804.4 613.7 797.28 617.81 804.4 630.29 804.4 613.7 775.67"/>
              <polygon class="cls-1" points="646.87 775.67 630.29 804.4 642.76 804.4 646.87 797.28 650.98 804.4 663.46 804.4 646.87 775.67"/>
            </g>
            <g>
              <polygon class="cls-1" points="696.63 746.94 680.05 775.67 692.52 775.67 696.63 768.55 700.74 775.67 713.22 775.67 696.63 746.94"/>
              <polygon class="cls-1" points="680.05 775.67 663.46 804.4 675.93 804.4 680.05 797.28 684.16 804.4 696.63 804.4 680.05 775.67"/>
              <polygon class="cls-1" points="713.22 775.67 696.63 804.4 709.11 804.4 713.22 797.28 717.33 804.4 729.8 804.4 713.22 775.67"/>
            </g>
          </g>
          <g>
            <g>
              <polygon class="cls-1" points="597.11 804.4 580.53 833.13 593 833.13 597.11 826.01 601.22 833.13 613.7 833.13 597.11 804.4"/>
              <polygon class="cls-1" points="580.53 833.13 563.94 861.86 576.42 861.86 580.53 854.74 584.64 861.86 597.11 861.86 580.53 833.13"/>
              <polygon class="cls-1" points="613.7 833.13 597.11 861.86 609.59 861.86 613.7 854.74 617.81 861.86 630.29 861.86 613.7 833.13"/>
            </g>
            <g>
              <polygon class="cls-1" points="563.94 861.86 547.35 890.59 559.83 890.59 563.94 883.47 568.05 890.59 580.53 890.59 563.94 861.86"/>
              <polygon class="cls-1" points="547.35 890.59 530.77 919.32 543.24 919.32 547.35 912.2 551.46 919.32 563.94 919.32 547.35 890.59"/>
              <polygon class="cls-1" points="580.53 890.59 563.94 919.32 576.42 919.32 580.53 912.2 584.64 919.32 597.11 919.32 580.53 890.59"/>
            </g>
            <g>
              <polygon class="cls-1" points="630.29 861.86 613.7 890.59 626.18 890.59 630.29 883.47 634.4 890.59 646.87 890.59 630.29 861.86"/>
              <polygon class="cls-1" points="613.7 890.59 597.11 919.32 609.59 919.32 613.7 912.2 617.81 919.32 630.29 919.32 613.7 890.59"/>
              <polygon class="cls-1" points="646.87 890.59 630.29 919.32 642.76 919.32 646.87 912.2 650.98 919.32 663.46 919.32 646.87 890.59"/>
            </g>
          </g>
          <g>
            <g>
              <polygon class="cls-1" points="729.8 804.4 713.22 833.13 725.69 833.13 729.8 826.01 733.92 833.13 746.39 833.13 729.8 804.4"/>
              <polygon class="cls-1" points="713.22 833.13 696.63 861.86 709.11 861.86 713.22 854.74 717.33 861.86 729.8 861.86 713.22 833.13"/>
              <polygon class="cls-1" points="746.39 833.13 729.8 861.86 742.28 861.86 746.39 854.74 750.5 861.86 762.98 861.86 746.39 833.13"/>
            </g>
            <g>
              <polygon class="cls-1" points="696.63 861.86 680.05 890.59 692.52 890.59 696.63 883.47 700.74 890.59 713.22 890.59 696.63 861.86"/>
              <polygon class="cls-1" points="680.05 890.59 663.46 919.32 675.93 919.32 680.05 912.2 684.16 919.32 696.63 919.32 680.05 890.59"/>
              <polygon class="cls-1" points="713.22 890.59 696.63 919.32 709.11 919.32 713.22 912.2 717.33 919.32 729.8 919.32 713.22 890.59"/>
            </g>
            <g>
              <polygon class="cls-1" points="762.98 861.86 746.39 890.59 758.87 890.59 762.98 883.47 767.09 890.59 779.56 890.59 762.98 861.86"/>
              <polygon class="cls-1" points="746.39 890.59 729.8 919.32 742.28 919.32 746.39 912.2 750.5 919.32 762.98 919.32 746.39 890.59"/>
              <polygon class="cls-1" points="779.56 890.59 762.98 919.32 775.45 919.32 779.56 912.2 783.68 919.32 796.15 919.32 779.56 890.59"/>
            </g>
          </g>
        </g>
        <g>
          <g>
            <g>
              <polygon class="cls-1" points="928.84 689.49 912.26 718.22 924.73 718.22 928.84 711.1 932.95 718.22 945.43 718.22 928.84 689.49"/>
              <polygon class="cls-1" points="912.26 718.22 895.67 746.94 908.15 746.94 912.26 739.82 916.37 746.94 928.84 746.94 912.26 718.22"/>
              <polygon class="cls-1" points="945.43 718.22 928.84 746.94 941.32 746.94 945.43 739.82 949.54 746.94 962.02 746.94 945.43 718.22"/>
            </g>
            <g>
              <polygon class="cls-1" points="895.67 746.94 879.08 775.67 891.56 775.67 895.67 768.55 899.78 775.67 912.26 775.67 895.67 746.94"/>
              <polygon class="cls-1" points="879.08 775.67 862.5 804.4 874.97 804.4 879.08 797.28 883.19 804.4 895.67 804.4 879.08 775.67"/>
              <polygon class="cls-1" points="912.26 775.67 895.67 804.4 908.15 804.4 912.26 797.28 916.37 804.4 928.84 804.4 912.26 775.67"/>
            </g>
            <g>
              <polygon class="cls-1" points="962.02 746.94 945.43 775.67 957.9 775.67 962.02 768.55 966.13 775.67 978.6 775.67 962.02 746.94"/>
              <polygon class="cls-1" points="945.43 775.67 928.84 804.4 941.32 804.4 945.43 797.28 949.54 804.4 962.02 804.4 945.43 775.67"/>
              <polygon class="cls-1" points="978.6 775.67 962.02 804.4 974.49 804.4 978.6 797.28 982.71 804.4 995.19 804.4 978.6 775.67"/>
            </g>
          </g>
          <g>
            <g>
              <polygon class="cls-1" points="862.5 804.4 845.91 833.13 858.39 833.13 862.5 826.01 866.61 833.13 879.08 833.13 862.5 804.4"/>
              <polygon class="cls-1" points="845.91 833.13 829.32 861.86 841.8 861.86 845.91 854.74 850.02 861.86 862.5 861.86 845.91 833.13"/>
              <polygon class="cls-1" points="879.08 833.13 862.5 861.86 874.97 861.86 879.08 854.74 883.19 861.86 895.67 861.86 879.08 833.13"/>
            </g>
            <g>
              <polygon class="cls-1" points="829.32 861.86 812.74 890.59 825.21 890.59 829.32 883.47 833.43 890.59 845.91 890.59 829.32 861.86"/>
              <polygon class="cls-1" points="812.74 890.59 796.15 919.32 808.63 919.32 812.74 912.2 816.85 919.32 829.32 919.32 812.74 890.59"/>
              <polygon class="cls-1" points="845.91 890.59 829.32 919.32 841.8 919.32 845.91 912.2 850.02 919.32 862.5 919.32 845.91 890.59"/>
            </g>
            <g>
              <polygon class="cls-1" points="895.67 861.86 879.08 890.59 891.56 890.59 895.67 883.47 899.78 890.59 912.26 890.59 895.67 861.86"/>
              <polygon class="cls-1" points="879.08 890.59 862.5 919.32 874.97 919.32 879.08 912.2 883.19 919.32 895.67 919.32 879.08 890.59"/>
              <polygon class="cls-1" points="912.26 890.59 895.67 919.32 908.15 919.32 912.26 912.2 916.37 919.32 928.84 919.32 912.26 890.59"/>
            </g>
          </g>
          <g>
            <g>
              <polygon class="cls-1" points="995.19 804.4 978.6 833.13 991.08 833.13 995.19 826.01 999.3 833.13 1011.77 833.13 995.19 804.4"/>
              <polygon class="cls-1" points="978.6 833.13 962.02 861.86 974.49 861.86 978.6 854.74 982.71 861.86 995.19 861.86 978.6 833.13"/>
              <polygon class="cls-1" points="1011.77 833.13 995.19 861.86 1007.66 861.86 1011.77 854.74 1015.89 861.86 1028.36 861.86 1011.77 833.13"/>
            </g>
            <g>
              <polygon class="cls-1" points="962.02 861.86 945.43 890.59 957.9 890.59 962.02 883.47 966.13 890.59 978.6 890.59 962.02 861.86"/>
              <polygon class="cls-1" points="945.43 890.59 928.84 919.32 941.32 919.32 945.43 912.2 949.54 919.32 962.02 919.32 945.43 890.59"/>
              <polygon class="cls-1" points="978.6 890.59 962.02 919.32 974.49 919.32 978.6 912.2 982.71 919.32 995.19 919.32 978.6 890.59"/>
            </g>
            <g>
              <polygon class="cls-1" points="1028.36 861.86 1011.77 890.59 1024.25 890.59 1028.36 883.47 1032.47 890.59 1044.95 890.59 1028.36 861.86"/>
              <polygon class="cls-1" points="1011.77 890.59 995.19 919.32 1007.66 919.32 1011.77 912.2 1015.89 919.32 1028.36 919.32 1011.77 890.59"/>
              <polygon class="cls-1" points="1044.95 890.59 1028.36 919.32 1040.84 919.32 1044.95 912.2 1049.06 919.32 1061.53 919.32 1044.95 890.59"/>
            </g>
          </g>
        </g>
      </g>
    </g>
  </g>
</svg>