<svg xmlns="http://www.w3.org/2000/svg" viewBox="0 0 38.92 38.92"><g id="Ebene_2" data-name="Ebene 2"><g id="Ebene_1-2" data-name="Ebene 1"><path d="M0,0V38.92H38.92V0ZM33.46,26.54a3.7,3.7,0,0,1-2.58,2.6c-2.28.61-11.42.61-11.42.61s-9.14,0-11.42-.61a3.66,3.66,0,0,1-2.58-2.6,38.6,38.6,0,0,1-.61-7.08,38.54,38.54,0,0,1,.61-7.08A3.65,3.65,0,0,1,8,9.78c2.28-.62,11.42-.62,11.42-.62s9.14,0,11.42.62a3.68,3.68,0,0,1,2.58,2.6,38.54,38.54,0,0,1,.61,7.08A38.6,38.6,0,0,1,33.46,26.54Zm-17-2.74,7.64-4.34-7.64-4.35Z"/></g></g></svg>